<svg width="24" height="24" fill="none" xmlns="http://www.w3.org/2000/svg"><g clip-path="url(#clip0)"><path d="M.384 17.903l.786.792c.247.247.576.383.928.383.352 0 .681-.136.929-.383l8.968-8.969 8.978 8.979c.247.247.576.383.928.383.352 0 .681-.136.929-.383l.786-.787a1.314 1.314 0 000-1.857L12.926 5.333c-.247-.247-.576-.42-.93-.42h-.005c-.351 0-.68.173-.928.42l-10.68 10.7A1.326 1.326 0 000 16.97c0 .352.136.686.384.933z" fill="#D2D2D2"/></g><defs><clipPath id="clip0"><path fill="#fff" transform="rotate(180 12 12)" d="M0 0h24v24H0z"/></clipPath></defs></svg>