<svg width="64" height="64" fill="none" xmlns="http://www.w3.org/2000/svg"><g clip-path="url(#clip0)"><path d="M33.843 14.644a13.488 13.488 0 00-9.6-3.977 2.91 2.91 0 100 5.819c2.073 0 4.02.806 5.486 2.272a7.707 7.707 0 012.272 5.486 2.91 2.91 0 005.818 0c0-3.627-1.411-7.036-3.976-9.6z" fill="url(#paint0_linear)"/><path d="M63.148 59.034L43.312 39.198a24.124 24.124 0 005.175-14.955C48.487 10.876 37.61 0 24.243 0A24.084 24.084 0 007.1 7.1 24.085 24.085 0 000 24.244c0 13.368 10.876 24.244 24.243 24.244a24.125 24.125 0 0014.955-5.175l19.836 19.836A2.9 2.9 0 0061.09 64a2.909 2.909 0 002.057-4.966zM24.243 42.669c-10.16 0-18.425-8.266-18.425-18.426 0-4.921 1.917-9.548 5.397-13.028a18.303 18.303 0 0113.028-5.397c10.16 0 18.426 8.266 18.426 18.426 0 10.16-8.266 18.425-18.426 18.425z" fill="url(#paint1_linear)"/></g><defs><linearGradient id="paint0_linear" x1="29.577" y1="10.667" x2="25.406" y2="26.02" gradientUnits="userSpaceOnUse"><stop stop-color="#2E9ADB"/><stop offset="1" stop-color="#55B570"/></linearGradient><linearGradient id="paint1_linear" x1="32" y1="0" x2="15.808" y2="59.601" gradientUnits="userSpaceOnUse"><stop stop-color="#2E9ADB"/><stop offset="1" stop-color="#55B570"/></linearGradient><clipPath id="clip0"><path fill="#fff" d="M0 0h64v64H0z"/></clipPath></defs></svg>