<svg width="64" height="64" fill="none" xmlns="http://www.w3.org/2000/svg"><path d="M13.25 15c1.036 0 1.875-.84 1.875-1.875 0-5.17 4.206-9.375 9.375-9.375 5.17 0 9.375 4.206 9.375 9.375a1.875 1.875 0 003.75 0C37.625 5.888 31.737 0 24.5 0S11.375 5.888 11.375 13.125c0 1.036.84 1.875 1.875 1.875z" fill="url(#paint0_linear)"/><path d="M19.912 63.802c.26.13.547.198.838.198H47c.497 0 .974-.197 1.326-.55a14.582 14.582 0 004.299-10.378V35.875A5.631 5.631 0 0047 30.25c-.732 0-1.431.142-2.073.398A5.634 5.634 0 0039.5 26.5c-.732 0-1.431.142-2.073.398A5.634 5.634 0 0032 22.75a5.6 5.6 0 00-1.875.323v-9.948A5.631 5.631 0 0024.5 7.5a5.631 5.631 0 00-5.625 5.625V34H17a5.631 5.631 0 00-5.625 5.625V49.99c0 2.87.797 5.677 2.306 8.118a15.431 15.431 0 006.23 5.694zm-4.787-24.177c0-1.034.841-1.875 1.875-1.875h1.875v8.06a1.875 1.875 0 003.75 0V13.126c0-1.034.841-1.875 1.875-1.875s1.875.841 1.875 1.875v26.5a1.875 1.875 0 003.75 0v-11.25c0-1.034.841-1.875 1.875-1.875s1.875.841 1.875 1.875v11.25a1.875 1.875 0 003.75 0v-7.5c0-1.034.841-1.875 1.875-1.875s1.875.841 1.875 1.875v7.5a1.875 1.875 0 003.75 0v-3.75c0-1.034.841-1.875 1.875-1.875s1.875.841 1.875 1.875v17.197c0 2.667-.95 5.188-2.687 7.178H21.21a11.624 11.624 0 01-6.085-10.26V39.625z" fill="url(#paint1_linear)"/><defs><linearGradient id="paint0_linear" x1="24.5" y1="0" x2="22.226" y2="14.647" gradientUnits="userSpaceOnUse"><stop stop-color="#2E9ADB"/><stop offset="1" stop-color="#55B570"/></linearGradient><linearGradient id="paint1_linear" x1="32" y1="7.5" x2="13.533" y2="57.128" gradientUnits="userSpaceOnUse"><stop stop-color="#2E9ADB"/><stop offset="1" stop-color="#55B570"/></linearGradient></defs></svg>