<svg width="480" height="99" fill="none" xmlns="http://www.w3.org/2000/svg"><path d="M214.343 14.11C164.652 14.11 0 51.687 0 51.687V98h480V3.125s-54.931 30.333-115.98 32.083c-61.048 1.75-99.987-21.097-149.677-21.097z" fill="#fff" fill-opacity=".25"/><path d="M159.914 38.8C110.224 38.8 0 0 0 0v98.5h480V3.38s-20.855 43.18-90.014 20.525C320.827 1.252 209.605 38.8 159.914 38.8z" fill="#fff" fill-opacity=".25"/><path d="M152.549 13.362C102.858 13.362 0 44.625 0 44.625v53.75h480V3.5S363.194 31.25 302.146 33c-61.049 1.75-99.906-19.638-149.597-19.638z" fill="#fff"/></svg>