<svg width="480" height="100" fill="none" xmlns="http://www.w3.org/2000/svg"><path d="M265.658 85.669C315.348 85.669 480 47.5 480 47.5V.457H0v96.37s54.931-30.81 115.98-32.588c61.048-1.778 99.987 21.43 149.678 21.43z" fill="#fff" fill-opacity=".25"/><path d="M320.086 60.61C369.777 60.61 480 100 480 100V0H0v96.57s20.855-43.838 90.014-20.84c69.159 23 180.381-15.12 230.072-15.12z" fill="#fff" fill-opacity=".25"/><path d="M327.451 86.43C377.142 86.43 480 54.672 480 54.672V.078H0v96.37S116.806 68.26 177.854 66.483c61.049-1.778 99.906 19.947 149.597 19.947z" fill="#fff"/></svg>