<svg width="1310" height="548" fill="none" xmlns="http://www.w3.org/2000/svg"><circle r="3" transform="matrix(-1 0 0 1 535 150)" fill="#fff"/><circle r="3" transform="matrix(-1 0 0 1 323 177)" fill="#fff"/><circle r="3" transform="matrix(-1 0 0 1 111 204)" fill="#fff"/><circle r="3" transform="matrix(-1 0 0 1 3 97)" fill="#fff"/><circle r="3" transform="matrix(-1 0 0 1 195 55)" fill="#fff"/><circle r="3" transform="matrix(-1 0 0 1 387 13)" fill="#fff"/><circle r="3" transform="matrix(-1 0 0 1 9 171)" fill="#fff"/><circle r="3" transform="matrix(-1 0 0 1 111 326)" fill="#fff"/><circle r="3" transform="matrix(-1 0 0 1 213 481)" fill="#fff"/><circle r="3" transform="matrix(-1 0 0 1 295 299)" fill="#fff"/><circle r="3" transform="matrix(-1 0 0 1 25 433)" fill="#fff"/><circle r="3" transform="matrix(-1 0 0 1 602 61)" fill="#fff"/><circle r="3" transform="matrix(-1 0 0 1 1100 320)" fill="#fff"/><circle r="3" transform="matrix(-1 0 0 1 1307 465)" fill="#fff"/><circle r="3" transform="matrix(-1 0 0 1 1258 304)" fill="#fff"/><circle r="3" transform="matrix(-1 0 0 1 1304 156)" fill="#fff"/><circle r="3" transform="matrix(-1 0 0 1 1125 78)" fill="#fff"/><circle r="3" transform="matrix(-1 0 0 1 946 3)" fill="#fff"/><circle r="3" transform="matrix(-1 0 0 1 908 124)" fill="#fff"/><circle r="2" transform="matrix(-1 0 0 1 1260 223)" fill="#fff"/><circle r="2" transform="matrix(-1 0 0 1 1228 73)" fill="#fff"/><circle r="2" transform="matrix(-1 0 0 1 1014 152)" fill="#fff"/><circle r="2" transform="matrix(-1 0 0 1 800 21)" fill="#fff"/><circle r="2" transform="matrix(-1 0 0 1 699 16)" fill="#fff"/><circle r="2" transform="matrix(-1 0 0 1 424 107)" fill="#fff"/><circle r="2" transform="matrix(-1 0 0 1 149 198)" fill="#fff"/><circle r="2" transform="matrix(-1 0 0 1 56 96)" fill="#fff"/><circle r="2" transform="matrix(-1 0 0 1 30 321)" fill="#fff"/><circle r="2" transform="matrix(-1 0 0 1 4 546)" fill="#fff"/><circle r="2" transform="matrix(-1 0 0 1 453 332)" fill="#fff"/><circle r="2" transform="matrix(-1 0 0 1 724 331)" fill="#fff"/><path transform="matrix(-.53275 .84627 .847 .53159 1304 153)" stroke="#fff" stroke-opacity=".5" stroke-width=".5" d="M0-.25h82.68"/><path stroke="#fff" stroke-opacity=".5" stroke-width=".5" d="M1259.75 222.994l-2 81m-243.686-152.236l-106-28m-759.103 73.995l-38 6m.116.009l-102-33M55.995 95.75l-53 1m108.02 229l-81-5m80.79 5.093l-86 107m4.945-111.854l-5 112M601.8 60.85l-67 89m.29-.083l-111-43m803.898-34.017l-103 5"/></svg>