<svg viewBox="0 0 1920 394" fill="none" xmlns="http://www.w3.org/2000/svg"><path d="M1062.63 337.535c198.76 0 857.37-150.38 857.37-150.38V1.802H.001V381.5s219.724-121.394 463.918-128.398c244.195-7.003 399.948 84.433 598.711 84.433z" fill="#fff" fill-opacity=".25"/><path d="M1280.34 238.803C1479.11 238.803 1920 394 1920 394V0H.001v380.483s83.42-172.719 360.055-82.104c276.636 90.615 721.524-59.576 920.284-59.576z" fill="#fff" fill-opacity=".25"/><path d="M1309.8 340.531c198.77 0 610.2-125.117 610.2-125.117V.302H0V380s467.222-111.058 711.417-118.061c244.195-7.004 399.623 78.592 598.383 78.592z" fill="#fff"/></svg>