<svg viewBox="0 0 1920 394" fill="none" xmlns="http://www.w3.org/2000/svg"><path d="M857.37 56.465C658.607 56.465 0 206.845 0 206.845v185.353h1920V12.5s-219.72 121.394-463.92 128.398c-244.19 7.003-399.95-84.433-598.71-84.433z" fill="#fff" fill-opacity=".25"/><path d="M639.657 155.197C440.894 155.197 0 0 0 0v394h1920V13.517s-83.42 172.719-360.06 82.104c-276.63-90.615-721.52 59.576-920.283 59.576z" fill="#fff" fill-opacity=".25"/><path d="M609.878 53.448C411.219 53.448 0 178.5 0 178.5v215h1919V14s-466.98 111-711.05 118c-244.064 7-399.412-78.552-598.072-78.552z" fill="#fff"/></svg>